<?xml version="1.0" encoding="UTF-8"?>
<svg class="" width="175px" height="175px" enable-background="new 0 0 464 464" version="1.1" viewBox="0 0 464 464" xml:space="preserve" xmlns="http://www.w3.org/2000/svg"><circle class="" cx="72" cy="176" r="40" fill="#FFB398" data-original="#FFB398"/><path class="" d="m104 96c0-26.51-21.49-48-48-48 26.51 0 48-21.49 48-48 0 26.51 21.49 48 48 48-26.51 0-48 21.49-48 48z" fill="#008DD2" data-old_color="#008dd2" data-original="#FFD422"/><path class="active-path" d="m328 448c0-26.51-21.49-48-48-48 26.51 0 48-21.49 48-48 0 26.51 21.49 48 48 48-26.51 0-48 21.49-48 48z" fill="#FFB800" data-old_color="#5AAAE7" data-original="#5AAAE7"/><path class="" d="m16 216c-8.837 0-16 7.163-16 16v56c0 8.837 7.163 16 16 16h40c8.837 0 16-7.163 16-16s-7.163-16-16-16h-24v65.373c0 4.243 1.686 8.313 4.686 11.314l35.314 35.313v64c0 8.837 7.163 16 16 16s16-7.163 16-16v-73.373c0-4.243-1.686-8.313-4.686-11.314l-19.314-19.313 24-24 32 32v64c0 8.837 7.163 16 16 16s16-7.163 16-16v-73.373c0-4.243-1.686-8.313-4.686-11.314l-43.314-43.313v-40h64c8.837 0 16-7.163 16-16v-56c0-8.837-7.163-16-16-16s-16 7.163-16 16v40h-152z" fill="#008DD2" data-old_color="#008dd2" data-original="#FFD422"/><circle class="" cx="360" cy="40" r="40" fill="#FFB398" data-original="#FFB398"/><g fill="#00DC60">
	<path class="" d="m400 80h48c8.837 0 16 7.163 16 16v48c0 8.837-7.163 16-16 16s-16-7.163-16-16v-32h-32v89.373c0 4.243-1.686 8.313-4.686 11.314l-27.314 27.313 36.686 36.686c6.248 6.248 6.248 16.379 0 22.627l-1.373 1.373c-6.248 6.248-16.379 6.248-22.627 0l-49.373-49.373c-6.248-6.248-6.248-16.379 0-22.627l20.687-20.686-24-24-32 32v64c0 8.837-7.163 16-16 16s-16-7.163-16-16v-73.373c0-4.243 1.686-8.313 4.686-11.314l43.314-43.313v-40h-48c-8.837 0-16-7.163-16-16v-56c0-8.837 7.163-16 16-16s16 7.163 16 16v40h120z" data-old_color="#F40E34" data-original="#F40E34"/>
	<rect class="" x="352" y="32" width="16" height="24" data-old_color="#F40E34" data-original="#F40E34"/>
	<path class="" d="m88 192h-24v-16h16v-16h16v24c0 4.418-3.578 8-8 8z" data-old_color="#F40E34" data-original="#F40E34"/>
</g> </svg>
